<?xml version="1.0" encoding="UTF-8"?>
<svg width="350px" height="250px" viewBox="0 0 350 250" version="1.1" xmlns="http://www.w3.org/2000/svg" xmlns:xlink="http://www.w3.org/1999/xlink">
    <!-- Generator: Sketch 58 (84663) - https://sketch.com -->
    <title>Artboard Copy 4</title>
    <desc>Created with Sketch.</desc>
    <defs>
        <linearGradient x1="50.0178111%" y1="100.038419%" x2="50.0178111%" y2="0.0267071872%" id="linearGradient-1">
            <stop stop-color="#808080" stop-opacity="0.25" offset="0%"></stop>
            <stop stop-color="#808080" stop-opacity="0.12" offset="54%"></stop>
            <stop stop-color="#808080" stop-opacity="0.1" offset="100%"></stop>
        </linearGradient>
    </defs>
    <g id="Artboard-Copy-4" stroke="none" stroke-width="1" fill="none" fill-rule="evenodd">
        <g id="hero-01" transform="translate(0.000000, -0.000000)">
            <path d="M343.229204,61.2190265 C339.651604,54.2695825 334.961194,47.9522298 329.343805,42.5172566 L136.732301,40.9128319 L295.316372,22.0840708 C284.939912,18.6121713 274.082558,16.7914637 263.14115,16.6884956 C247.874336,6.2659292 228.252655,0 206.85,0 C187.64646,0 169.889381,5.04557522 155.412389,13.6066372 C143.097345,8.23893805 129.078761,5.20663717 114.183628,5.20663717 C71.3876106,5.20663717 35.7278761,30.2641593 27.7274336,63.4955752 L343.229204,61.2190265 Z" id="Path" fill="#009688" fill-rule="nonzero" opacity="0.1"></path>
            <path d="M350,89.079646 C349.986741,79.9740356 347.935728,70.9868304 343.997345,62.7769912 L10.1778761,92.409292 C6.79011563,97.5749653 4.15665157,103.197541 2.35707965,109.10708 L105.730973,122.134513 L0,131.634071 C3.18097345,169.251327 41.3278761,198.957965 87.9274336,198.957965 C111.383628,198.957965 132.69646,191.428319 148.489823,179.15354 C164.332743,191.660619 185.840708,199.345133 209.560177,199.345133 C244.736726,199.345133 275.1,182.411947 289.239381,157.927434 C317.604867,150.317257 339.639381,131.20354 347.181416,107.29823 L216.45177,90.1637168 L350,90.1637168 C350,89.8075221 350,89.4482301 350,89.079646 Z" id="Path" fill="#009688" fill-rule="nonzero" opacity="0.1"></path>
            <path d="M87.7849558,171.304867 C87.7849558,171.304867 73.4690265,150.648673 75.9004425,131.153982 C76.9709709,122.983892 75.3624533,114.686985 71.3163717,107.50885 C69.3693377,104.115431 67.1153663,100.907618 64.5827434,97.9256637" id="Path" stroke="#535461" stroke-width="2"></path>
            <path d="M66.0415929,85.6323009 C66.9707965,88.4353982 64.5827434,98.250885 64.5827434,98.250885 C64.5827434,98.250885 56.8115044,91.799115 55.8823009,88.9929204 C54.9542914,86.1875093 56.4762261,83.160974 59.2816372,82.2329646 C62.0870482,81.3049552 65.1135835,82.8268899 66.0415929,85.6323009 L66.0415929,85.6323009 Z" id="Path" fill="#009688" fill-rule="nonzero"></path>
            <path d="M79.5769912,98.3902655 C78.8336283,101.249115 71.4960177,108.190265 71.4960177,108.190265 C71.4960177,108.190265 68.4792035,98.5513274 69.2256637,95.6924779 C69.6851526,93.8184351 71.1183291,92.3371047 72.9761697,91.815957 C74.8340103,91.2948094 76.8285339,91.8146269 78.1956753,93.176277 C79.5628167,94.5379271 80.0906573,96.5303425 79.5769912,98.3902655 L79.5769912,98.3902655 Z" id="Path" fill="#009688" fill-rule="nonzero"></path>
            <path d="M87.9986726,125.061504 C85.9110619,127.15531 76.0738938,129.44115 76.0738938,129.44115 C76.0738938,129.44115 78.3380531,119.597788 80.410177,117.50708 C82.4962738,115.414996 85.8833585,115.410142 87.9754424,117.496239 C90.0675264,119.582336 90.0723799,122.96942 87.9862832,125.061504 L87.9986726,125.061504 Z" id="Path" fill="#009688" fill-rule="nonzero"></path>
            <path d="M89.8230088,146.690265 C88.119469,149.103097 78.8088496,153.021239 78.8088496,153.021239 C78.8088496,153.021239 79.3756637,142.936283 81.0792035,140.523451 C82.7821223,138.108916 86.1199781,137.532037 88.5345132,139.234956 C90.9490483,140.937875 91.5259275,144.27573 89.8230088,146.690265 L89.8230088,146.690265 Z" id="Path" fill="#009688" fill-rule="nonzero"></path>
            <path d="M61.0176991,112.263274 C63.6752212,113.55177 73.7168142,112.473894 73.7168142,112.473894 C73.7168142,112.473894 68.339823,103.925221 65.6637168,102.633628 C63.0260333,101.47157 59.9419039,102.608378 58.6894262,105.204346 C57.4369485,107.800315 58.4665435,110.921872 61.0176991,112.263274 L61.0176991,112.263274 Z" id="Path" fill="#009688" fill-rule="nonzero"></path>
            <path d="M63.4676991,137.515929 C66.3915929,137.949558 75.6526549,133.916814 75.6526549,133.916814 C75.6526549,133.916814 67.9619469,127.365929 65.0442478,126.932301 C62.1216595,126.497804 59.4002046,128.514801 58.965708,131.437389 C58.5312114,134.359978 60.5482082,137.081433 63.4707965,137.515929 L63.4676991,137.515929 Z" id="Path" fill="#009688" fill-rule="nonzero"></path>
            <path d="M69.2225664,161.730973 C72.0318584,162.660177 81.8411504,160.244248 81.8411504,160.244248 C81.8411504,160.244248 75.3676991,152.500885 72.549115,151.571681 C70.7332257,150.975237 68.7370757,151.392866 67.3125955,152.66725 C65.8881153,153.941635 65.2517173,155.879166 65.6431264,157.749994 C66.0345356,159.620822 67.3942876,161.140724 69.210177,161.737168 L69.2225664,161.730973 Z" id="Path" fill="#009688" fill-rule="nonzero"></path>
            <path d="M66.0415929,85.6323009 C66.9707965,88.4353982 64.5827434,98.250885 64.5827434,98.250885 C64.5827434,98.250885 56.8115044,91.799115 55.8823009,88.9929204 C54.9542914,86.1875093 56.4762261,83.160974 59.2816372,82.2329646 C62.0870482,81.3049552 65.1135835,82.8268899 66.0415929,85.6323009 L66.0415929,85.6323009 Z" id="Path" fill="#000000" fill-rule="nonzero" opacity="0.25"></path>
            <path d="M79.5769912,98.3902655 C78.8336283,101.249115 71.4960177,108.190265 71.4960177,108.190265 C71.4960177,108.190265 68.4792035,98.5513274 69.2256637,95.6924779 C69.6851526,93.8184351 71.1183291,92.3371047 72.9761697,91.815957 C74.8340103,91.2948094 76.8285339,91.8146269 78.1956753,93.176277 C79.5628167,94.5379271 80.0906573,96.5303425 79.5769912,98.3902655 L79.5769912,98.3902655 Z" id="Path" fill="#000000" fill-rule="nonzero" opacity="0.25"></path>
            <path d="M87.9986726,125.061504 C85.9110619,127.15531 76.0738938,129.44115 76.0738938,129.44115 C76.0738938,129.44115 78.3380531,119.597788 80.410177,117.50708 C82.4962738,115.414996 85.8833585,115.410142 87.9754424,117.496239 C90.0675264,119.582336 90.0723799,122.96942 87.9862832,125.061504 L87.9986726,125.061504 Z" id="Path" fill="#000000" fill-rule="nonzero" opacity="0.25"></path>
            <path d="M89.8230088,146.690265 C88.119469,149.103097 78.8088496,153.021239 78.8088496,153.021239 C78.8088496,153.021239 79.3756637,142.936283 81.0792035,140.523451 C82.7821223,138.108916 86.1199781,137.532037 88.5345132,139.234956 C90.9490483,140.937875 91.5259275,144.27573 89.8230088,146.690265 L89.8230088,146.690265 Z" id="Path" fill="#000000" fill-rule="nonzero" opacity="0.25"></path>
            <path d="M61.0176991,112.263274 C63.6752212,113.55177 73.7168142,112.473894 73.7168142,112.473894 C73.7168142,112.473894 68.339823,103.925221 65.6637168,102.633628 C63.0260333,101.47157 59.9419039,102.608378 58.6894262,105.204346 C57.4369485,107.800315 58.4665435,110.921872 61.0176991,112.263274 L61.0176991,112.263274 Z" id="Path" fill="#000000" fill-rule="nonzero" opacity="0.25"></path>
            <path d="M63.4676991,137.515929 C66.3915929,137.949558 75.6526549,133.916814 75.6526549,133.916814 C75.6526549,133.916814 67.9619469,127.365929 65.0442478,126.932301 C62.1216595,126.497804 59.4002046,128.514801 58.965708,131.437389 C58.5312114,134.359978 60.5482082,137.081433 63.4707965,137.515929 L63.4676991,137.515929 Z" id="Path" fill="#000000" fill-rule="nonzero" opacity="0.25"></path>
            <path d="M69.2225664,161.730973 C72.0318584,162.660177 81.8411504,160.244248 81.8411504,160.244248 C81.8411504,160.244248 75.3676991,152.500885 72.549115,151.571681 C70.7332257,150.975237 68.7370757,151.392866 67.3125955,152.66725 C65.8881153,153.941635 65.2517173,155.879166 65.6431264,157.749994 C66.0345356,159.620822 67.3942876,161.140724 69.210177,161.737168 L69.2225664,161.730973 Z" id="Path" fill="#000000" fill-rule="nonzero" opacity="0.25"></path>
            <path d="M87.7044248,170.474779 C87.7044248,170.474779 66.2460177,157.391593 60.5654867,138.572124 C58.2324285,130.670348 53.4006444,123.737836 46.7946903,118.814159 C43.6397935,116.501514 40.2795736,114.482894 36.7561947,112.783628" id="Path" stroke="#535461" stroke-width="2"></path>
            <path d="M33.1075221,100.964159 C35.0929204,103.150885 36.8862832,113.090265 36.8862832,113.090265 C36.8862832,113.090265 27.1699115,110.339823 25.1845133,108.153097 C23.1993428,105.965219 23.3636702,102.582294 25.5515487,100.597124 C27.7394272,98.6119535 31.1223517,98.7762808 33.1075221,100.964159 L33.1075221,100.964159 Z" id="Path" fill="#009688" fill-rule="nonzero"></path>
            <path d="M50.6539823,107.140265 C51.1309735,110.057965 47.2469027,119.377876 47.2469027,119.377876 C47.2469027,119.377876 40.5752212,111.786283 40.0951327,108.868584 C39.6178708,105.952838 41.5946525,103.202262 44.5103982,102.725 C47.426144,102.247738 50.1767203,104.22452 50.6539823,107.140265 Z" id="Path" fill="#009688" fill-rule="nonzero"></path>
            <path d="M69.1606195,128.106195 C68.0982301,130.865929 60.0327434,136.94292 60.0327434,136.94292 C60.0327434,136.94292 58.1123894,127.031416 59.1716814,124.268584 C60.2314083,121.510215 63.3265867,120.133193 66.0849558,121.19292 C68.8433248,122.252647 70.2203464,125.347826 69.1606195,128.106195 Z" id="Path" fill="#009688" fill-rule="nonzero"></path>
            <path d="M79.6017699,147.133186 C79.0225664,150.032301 72.0969027,157.385398 72.0969027,157.385398 C72.0969027,157.385398 68.5287611,147.935398 69.1079646,145.039381 C69.4819868,143.164843 70.8276517,141.632237 72.6380602,141.018881 C74.4484687,140.405525 76.4485768,140.804602 77.884963,142.065783 C79.3213492,143.326965 79.9757923,145.258648 79.6017699,147.133186 Z" id="Path" fill="#009688" fill-rule="nonzero"></path>
            <path d="M39.299115,127.347345 C42.2539823,127.449558 50.9977876,122.391593 50.9977876,122.391593 C50.9977876,122.391593 42.619469,116.754425 39.6646018,116.646018 C37.7546536,116.58073 35.954958,117.539346 34.943443,119.160766 C33.9319279,120.782186 33.8622665,122.820076 34.7606996,124.506784 C35.6591327,126.193491 37.3891669,127.272765 39.299115,127.338053 L39.299115,127.347345 Z" id="Path" fill="#009688" fill-rule="nonzero"></path>
            <path d="M51.7783186,149.437611 C54.6278761,148.650885 61.4606195,141.211062 61.4606195,141.211062 C61.4606195,141.211062 51.7752212,138.327434 48.9380531,139.126549 C47.0767963,139.618715 45.6236027,141.073121 45.1329896,142.934788 C44.6423764,144.796455 45.1900377,146.778155 46.566994,148.123702 C47.9439503,149.469248 49.9377584,149.971044 51.7876106,149.437611 L51.7783186,149.437611 Z" id="Path" fill="#009688" fill-rule="nonzero"></path>
            <path d="M66.8530973,169.245133 C69.7955752,168.935398 77.7867257,162.771681 77.7867257,162.771681 C77.7867257,162.771681 68.7269912,158.30531 65.7876106,158.599558 C63.8859618,158.789888 62.2303061,159.980279 61.444313,161.722321 C60.65832,163.464362 60.8614006,165.493397 61.9770564,167.045108 C63.0927122,168.596819 64.9514485,169.435464 66.8530973,169.245133 L66.8530973,169.245133 Z" id="Path" fill="#009688" fill-rule="nonzero"></path>
            <ellipse id="Oval" fill="#009688" fill-rule="nonzero" opacity="0.1" cx="175.219912" cy="227.369912" rx="55.4424779" ry="3.28938053"></ellipse>
            <ellipse id="Oval" fill="#009688" fill-rule="nonzero" opacity="0.1" cx="231.331416" cy="241.980088" rx="14.5141593" ry="2.6420354"></ellipse>
            <path d="M200.707965,221.587168 L200.707965,223.572566 L141.976106,223.572566 L141.976106,221.955752 C149.302123,219.241287 154.269913,212.378968 154.560857,204.571652 C154.8518,196.764335 150.408533,189.551309 143.304867,186.299115 L200.320796,186.299115 C193.388698,189.480173 188.977184,196.442134 189.060862,204.068806 C189.144539,211.695477 193.70774,218.558971 200.707965,221.587168 L200.707965,221.587168 Z" id="Path" fill="#C8CAD7" fill-rule="nonzero"></path>
            <path d="M200.320796,186.302212 C195.012183,188.7383 191.089169,193.443413 189.647345,199.10354 L153.978319,199.10354 C152.536494,193.443413 148.61348,188.7383 143.304867,186.302212 L200.320796,186.302212 Z" id="Path" fill="#000000" fill-rule="nonzero" opacity="0.1"></path>
            <path d="M74.7110619,176.183186 L74.7110619,187.333628 C74.7110619,193.49115 79.2176991,198.484071 84.7774336,198.484071 L257.609292,198.484071 C263.169027,198.484071 267.675664,193.49115 267.675664,187.333628 L267.675664,176.183186 L74.7110619,176.183186 Z" id="Path" fill="#C8CAD7" fill-rule="nonzero"></path>
            <path d="M200.707965,221.587168 L200.707965,223.572566 L141.976106,223.572566 L141.976106,221.955752 C143.586211,221.357946 145.109146,220.547519 146.504425,219.546018 L197.115044,219.546018 C198.236391,220.352702 199.440898,221.036987 200.707965,221.587168 Z" id="Path" fill="#000000" fill-rule="nonzero" opacity="0.1"></path>
            <rect id="Rectangle" fill="#C8CAD7" fill-rule="nonzero" x="122.565044" y="220.165487" width="97.5663717" height="5.88495575" rx="2.94247788"></rect>
            <path d="M267.675664,53.9929204 C267.675664,48.4334168 263.168796,43.9265487 257.609292,43.9265487 L84.7774336,43.9265487 C79.2179301,43.9265487 74.7110619,48.4334168 74.7110619,53.9929204 L74.7110619,178.351327 L267.675664,178.351327 L267.675664,53.9929204 Z" id="Path" fill="#474157" fill-rule="nonzero"></path>
            <rect id="Rectangle" fill="#EDEDF4" fill-rule="nonzero" x="79.9765487" y="53.5283186" width="182.433628" height="116.769912" rx="16"></rect>
            <circle id="Oval" fill="#FFFFFF" fill-rule="nonzero" cx="171.193363" cy="48.7274336" r="2.32300885"></circle>
            <circle id="Oval" fill="#FFFFFF" fill-rule="nonzero" cx="171.193363" cy="187.79823" r="5.7300885"></circle>
            <path d="M262.410177,58.4840708 L79.9765487,58.4840708 C79.9765487,55.7470844 82.1953145,53.5283186 84.9323009,53.5283186 L257.454425,53.5283186 C260.191411,53.5283186 262.410177,55.7470844 262.410177,58.4840708 Z" id="Path" fill="#C8CAD7" fill-rule="nonzero"></path>
            <circle id="Oval" fill="#EDEDF4" fill-rule="nonzero" cx="84.9323009" cy="56.0061947" r="1.23893805"></circle>
            <circle id="Oval" fill="#EDEDF4" fill-rule="nonzero" cx="88.649115" cy="56.0061947" r="1.23893805"></circle>
            <circle id="Oval" fill="#EDEDF4" fill-rule="nonzero" cx="92.3659292" cy="56.0061947" r="1.23893805"></circle>
            <rect id="Rectangle" fill="#009688" fill-rule="nonzero" x="86.790708" y="62.6654867" width="46.7699115" height="2.78761062"></rect>
            <rect id="Rectangle" fill="#009688" fill-rule="nonzero" x="86.790708" y="144.125664" width="46.7699115" height="2.78761062"></rect>
            <rect id="Rectangle" fill="#009688" fill-rule="nonzero" opacity="0.2" x="86.790708" y="150.320354" width="86.7256637" height="2.78761062"></rect>
            <rect id="Rectangle" fill="#009688" fill-rule="nonzero" opacity="0.2" x="86.790708" y="154.35" width="86.7256637" height="2.78761062"></rect>
            <rect id="Rectangle" fill="#009688" fill-rule="nonzero" opacity="0.2" x="86.790708" y="158.376549" width="86.7256637" height="2.78761062"></rect>
            <rect id="Rectangle" fill="#009688" fill-rule="nonzero" opacity="0.2" x="86.790708" y="70.099115" width="86.1061947" height="46.7699115"></rect>
            <rect id="Rectangle" fill="#009688" fill-rule="nonzero" opacity="0.2" x="87.7199115" y="121.20531" width="20.1327434" height="18.5840708"></rect>
            <rect id="Rectangle" fill="#009688" fill-rule="nonzero" opacity="0.2" x="152.764159" y="121.20531" width="20.1327434" height="18.5840708"></rect>
            <rect id="Rectangle" fill="#009688" fill-rule="nonzero" opacity="0.2" x="119.777434" y="121.20531" width="20.1327434" height="18.5840708"></rect>
            <rect id="Rectangle" fill="#009688" fill-rule="nonzero" opacity="0.2" x="191.276549" y="83.7026549" width="59.2615044" height="43.6199115"></rect>
            <rect id="Rectangle" fill="#EDEDF4" fill-rule="nonzero" x="197.520796" y="92.5548673" width="46.7699115" height="2.78761062"></rect>
            <rect id="Rectangle" fill="#EDEDF4" fill-rule="nonzero" x="197.520796" y="98.3376106" width="46.7699115" height="2.78761062"></rect>
            <rect id="Rectangle" fill="#EDEDF4" fill-rule="nonzero" x="197.520796" y="104.120354" width="46.7699115" height="2.78761062"></rect>
            <rect id="Rectangle" fill="#EDEDF4" fill-rule="nonzero" x="197.520796" y="109.9" width="46.7699115" height="2.78761062"></rect>
            <rect id="Rectangle" fill="#EDEDF4" fill-rule="nonzero" x="197.520796" y="115.682743" width="46.7699115" height="2.78761062"></rect>
            <rect id="Rectangle" fill="#009688" fill-rule="nonzero" x="198.502655" y="132.278319" width="44.809292" height="7.84557522"></rect>
            <rect id="Rectangle" fill="#009688" fill-rule="nonzero" x="196.108407" y="158.419912" width="30.0473451" height="5.26238938"></rect>
            <ellipse id="Oval" fill="#009688" fill-rule="nonzero" opacity="0.1" cx="80.0446903" cy="240.15885" rx="8.85840708" ry="1"></ellipse>
            <ellipse id="Oval" fill="#009688" fill-rule="nonzero" opacity="0.1" cx="261.375664" cy="227.314159" rx="5.30884956" ry="1"></ellipse>
            <path d="M83.1389381,225.362832 C83.1389381,225.362832 71.5858407,231.331416 77.5637168,238.371681 C77.5637168,238.371681 78.1243363,239.920354 79.7504425,239.790265 C79.7504425,239.790265 79.4252212,239.198673 80.679646,238.727876 C81.1169238,238.555707 81.5326959,238.333269 81.9185841,238.065044 C82.443493,237.701992 82.8359751,237.177958 83.0367257,236.572124 L83.0367257,236.572124 C83.0367257,236.572124 85.4,233.409735 83.569469,227.55885 C83.569469,227.55885 83.8048673,225.904867 83.5973451,225.638496 L82.1787611,227.530973 C82.1787611,227.530973 83.6314159,228.50354 83.7955752,229.934513 C83.7955752,229.934513 82.2840708,227.534071 81.9557522,227.806637 C81.890708,227.862389 81.2588496,228.859735 81.2588496,228.859735 C81.2588496,228.859735 83.7738938,230.566372 83.9628319,232.780973 C83.9628319,232.780973 82.5442478,229.683628 81.0141593,229.234513 L80.15,230.798673 C80.15,230.798673 82.9004425,232.471239 83.210177,234.986283 C83.210177,234.986283 81.6150442,231.796018 79.9858407,231.15177 L79.3415929,232.802655 C79.3415929,232.802655 81.989823,234.487611 82.2345133,236.581416 C82.2345133,236.581416 80.0199115,233.081416 79.2207965,233.174336 C79.2207965,233.174336 78.7221239,234.723009 78.7871681,235.203097 C78.7871681,235.203097 80.6610619,236.442035 80.6951327,237.680973 C80.6951327,237.680973 78.9668142,235.497345 78.7004425,235.64292 C78.7004425,235.64292 78.5889381,237.835841 79.1216814,238.978761 C79.1216814,238.978761 78.2110619,237.349558 78.3566372,235.64292 C77.8184116,236.120942 77.4327733,236.746797 77.2477876,237.442478 C77.2477876,237.442478 76.749115,236.234513 78.390708,235.125664 C78.390708,235.125664 78.5455752,233.419027 78.7345133,233.208407 C78.7345133,233.208407 76.9597345,234.072566 76.2070796,235.138053 C76.2070796,235.138053 76.4827434,233.552212 78.8893805,232.765487 L79.5088496,231.09292 C79.5088496,231.09292 77.1053097,232.111947 76.3650442,233.010177 C76.3650442,233.010177 76.8977876,231.436726 79.6977876,230.684071 L80.5278761,229.135398 C80.5278761,229.135398 78.390708,229.853982 77.35,230.684071 C77.35,230.684071 78.1584071,229.333628 80.7849558,228.711062 L81.460177,227.747788 C81.460177,227.747788 79.9115044,228.302212 79.4778761,228.500442 C79.0442478,228.698673 78.9575221,228.599558 78.9575221,228.599558 C79.7517046,227.928754 80.7169323,227.492257 81.7451327,227.338938 C81.7451327,227.338938 83.2473451,225.452655 83.1389381,225.362832 Z" id="Path" fill="#009688" fill-rule="nonzero"></path>
            <ellipse id="Oval" fill="#009688" fill-rule="nonzero" opacity="0.1" cx="52.4380531" cy="226.474779" rx="6.78938053" ry="1"></ellipse>
            <path d="M54.8230088,215.141593 C54.8230088,215.141593 45.9707965,219.713274 50.5424779,225.102655 C50.806907,225.789483 51.4831727,226.228243 52.2181416,226.189823 C52.2181416,226.189823 51.970354,225.737611 52.9212389,225.375221 C53.2573171,225.2423 53.5773333,225.071901 53.8752212,224.867257 C54.2776293,224.588097 54.5786713,224.185983 54.7331858,223.721239 L54.7331858,223.721239 C54.7331858,223.721239 56.5420354,221.299115 55.1389381,216.817257 C55.1389381,216.817257 55.3216814,215.547345 55.1606195,215.34292 L54.0858407,216.820354 C54.0858407,216.820354 55.1977876,217.566814 55.3247788,218.660177 C55.3247788,218.660177 54.1663717,216.823451 53.9154867,217.030973 C53.8659292,217.074336 53.3827434,217.839381 53.3827434,217.839381 C53.3827434,217.839381 55.309292,219.14646 55.4548673,220.843805 C55.4548673,220.843805 54.3676991,218.465044 53.1938053,218.127434 L52.5340708,219.323009 C52.5340708,219.323009 54.6371681,220.60531 54.8756637,222.531858 C54.8756637,222.531858 53.6522124,220.088053 52.3977876,219.595575 L51.9053097,220.859292 C51.9053097,220.859292 53.9371681,222.150885 54.1230088,223.75531 C54.1230088,223.75531 52.4256637,221.073009 51.8123894,221.156637 C51.8123894,221.156637 51.4314159,222.346018 51.4809735,222.70531 C51.4809735,222.70531 52.9181416,223.665487 52.9429204,224.60708 C52.9429204,224.60708 51.6172566,222.934513 51.4128319,223.058407 C51.4128319,223.058407 51.3292035,224.737168 51.7380531,225.613717 C51.3228556,224.827675 51.1200051,223.946877 51.1495575,223.058407 C50.7403034,223.421877 50.4454633,223.896419 50.300885,224.424336 C50.300885,224.424336 49.9199115,223.495133 51.1774336,222.649558 C51.1774336,222.649558 51.2951327,221.342478 51.440708,221.181416 C51.440708,221.181416 50.0809735,221.844248 49.5048673,222.65885 C49.5048673,222.65885 49.7154867,221.44469 51.5584071,220.840708 L52.0261062,219.558407 C52.0261062,219.558407 50.1831858,220.338938 49.6132743,221.029646 C49.6132743,221.029646 50.0221239,219.821681 52.1685841,219.245575 L52.8066372,218.065487 C52.8066372,218.065487 51.1681416,218.616814 50.3690265,219.245575 C50.3690265,219.245575 50.9884956,218.207965 53.0017699,217.734071 L53.5190265,216.993805 C53.5190265,216.993805 52.3327434,217.418142 52.0013274,217.573009 C51.6699115,217.727876 51.6017699,217.647345 51.6017699,217.647345 C52.2090865,217.134397 52.9467343,216.799882 53.7327434,216.680973 C53.7327434,216.680973 54.8911504,215.20354 54.8230088,215.141593 Z" id="Path" fill="#009688" fill-rule="nonzero"></path>
            <path d="M263.813274,218.365929 C263.813274,218.365929 256.890708,221.955752 260.465044,226.155752 C260.672054,226.692397 261.200843,227.034923 261.775221,227.004425 C261.775221,227.004425 261.580088,226.651327 262.326549,226.366372 C262.590149,226.264153 262.840714,226.131072 263.073009,225.969912 C263.386746,225.751523 263.621434,225.437518 263.742035,225.074779 L263.742035,225.074779 C263.742035,225.074779 265.157522,223.179204 264.05177,219.676106 C264.05177,219.676106 264.19115,218.684956 264.067257,218.523894 L263.227876,219.676106 C263.227876,219.676106 264.09823,220.261504 264.197345,221.119469 C264.197345,221.119469 263.289823,219.679204 263.09469,219.843363 C263.054425,219.877434 262.676549,220.462832 262.676549,220.462832 C262.676549,220.462832 264.184956,221.484956 264.29646,222.810619 C264.29646,222.810619 263.447788,220.952212 262.530973,220.688938 L262.035398,221.646018 C262.035398,221.646018 263.680088,222.64646 263.865929,224.154867 C263.865929,224.154867 262.911947,222.243805 261.933186,221.856637 L261.549115,222.847788 C261.549115,222.847788 263.134956,223.854425 263.283628,225.111947 C263.283628,225.111947 261.954867,223.011947 261.477876,223.080088 C261.341733,223.47262 261.254352,223.880397 261.217699,224.294248 C261.217699,224.294248 262.338938,225.043805 262.360619,225.780973 C262.360619,225.780973 261.323009,224.473894 261.165044,224.560619 C261.165044,224.560619 261.096903,225.873894 261.415929,226.558407 C261.093352,225.94317 260.935434,225.254942 260.957522,224.560619 C260.637557,224.84494 260.407249,225.216231 260.29469,225.629204 C260.29469,225.629204 259.984956,224.904425 260.979204,224.241593 C260.979204,224.241593 261.072124,223.219469 261.183628,223.092478 C261.183628,223.092478 260.121239,223.609735 259.672124,224.247788 C259.672124,224.247788 259.836283,223.296903 261.276549,222.826106 L261.642035,221.825664 C261.642035,221.825664 260.20177,222.445133 259.755752,222.971681 C259.755752,222.971681 260.065487,222.042478 261.756637,221.577876 L262.252212,220.648673 C261.580044,220.875457 260.939836,221.187753 260.347345,221.577876 C260.347345,221.577876 260.833628,220.769469 262.40708,220.397788 L262.809735,219.818584 C262.809735,219.818584 261.880531,220.153097 261.623451,220.270796 C261.366372,220.388496 261.313717,220.329646 261.313717,220.329646 C261.788319,219.928037 262.365283,219.666366 262.980088,219.573894 C262.980088,219.573894 263.875221,218.427876 263.813274,218.365929 Z" id="Path" fill="#009688" fill-rule="nonzero"></path>
            <ellipse id="Oval" fill="#009688" fill-rule="nonzero" opacity="0.1" cx="289.923894" cy="246.45885" rx="12.9314159" ry="1.08097345"></ellipse>
            <path d="M300.278319,212.353982 C299.981825,212.762744 299.744112,213.211062 299.572124,213.685841 C299.528761,213.800442 299.488496,213.933628 299.445133,214.060619 C299.365477,214.02391 299.282507,213.994871 299.197345,213.973894 C298.837313,213.883041 298.46485,213.851654 298.09469,213.880973 C298.09469,213.735398 298.110177,213.586726 298.116372,213.425664 C298.159735,211.793363 297.967699,209.516814 296.409735,210.483186 C294.916814,211.412389 295.982301,212.961062 296.945575,213.952212 C297.029204,214.038938 297.112832,214.119469 297.193363,214.196903 C296.316814,214.816372 296.14646,216.281416 296.000885,217.802212 C295.85531,219.323009 294.563717,220.986283 293.70885,221.930973 L293.464159,222.194248 C292.767057,221.637687 291.865845,221.404499 290.986283,221.553097 C290.949115,221.419912 290.911947,221.280531 290.868584,221.134956 C290.177876,218.629204 288.737611,214.289823 286.897788,213.338938 C286.978319,213.24292 287.05885,213.140708 287.142478,213.029204 C287.923009,212.00708 288.799558,210.492478 287.50177,210.10531 C286.203982,209.718142 286.089381,211.418584 286.160619,212.69469 C286.160619,212.855752 286.173009,213.007522 286.197788,213.15 C285.672483,213.173794 285.180381,213.41368 284.838053,213.812832 L284.639823,213.574336 C283.586726,212.335398 281.653982,210.362389 281.071681,211.852212 C280.526549,213.239823 282.223894,215.042478 283.419469,216.086283 L283.496903,216.151327 C282.691593,219.406637 286.19469,222.061062 288.080973,223.222566 L288.325664,223.371239 C285.723894,226.437611 284.119469,232.186283 284.119469,232.186283 L291.404425,233.487168 C291.404425,233.487168 296.233186,229.318142 295.616814,225.403097 L295.666372,225.403097 C300.492035,224.436726 301.591593,219.288938 300.838938,216.231858 L300.922566,216.197788 C301.802333,215.838058 302.57311,215.255171 303.15885,214.506637 C304.496903,212.623451 301.681416,210.495575 300.278319,212.353982 Z" id="Path" fill="#009688" fill-rule="nonzero"></path>
            <path d="M300.278319,212.353982 C299.981825,212.762744 299.744112,213.211062 299.572124,213.685841 C299.528761,213.800442 299.488496,213.933628 299.445133,214.060619 C299.365477,214.02391 299.282507,213.994871 299.197345,213.973894 C298.837313,213.883041 298.46485,213.851654 298.09469,213.880973 C298.09469,213.735398 298.110177,213.586726 298.116372,213.425664 C298.159735,211.793363 297.967699,209.516814 296.409735,210.483186 C294.916814,211.412389 295.982301,212.961062 296.945575,213.952212 C297.029204,214.038938 297.112832,214.119469 297.193363,214.196903 C296.316814,214.816372 296.14646,216.281416 296.000885,217.802212 C295.85531,219.323009 294.563717,220.986283 293.70885,221.930973 L293.464159,222.194248 C292.767057,221.637687 291.865845,221.404499 290.986283,221.553097 C290.949115,221.419912 290.911947,221.280531 290.868584,221.134956 C290.177876,218.629204 288.737611,214.289823 286.897788,213.338938 C286.978319,213.24292 287.05885,213.140708 287.142478,213.029204 C287.923009,212.00708 288.799558,210.492478 287.50177,210.10531 C286.203982,209.718142 286.089381,211.418584 286.160619,212.69469 C286.160619,212.855752 286.173009,213.007522 286.197788,213.15 C285.672483,213.173794 285.180381,213.41368 284.838053,213.812832 L284.639823,213.574336 C283.586726,212.335398 281.653982,210.362389 281.071681,211.852212 C280.526549,213.239823 282.223894,215.042478 283.419469,216.086283 L283.496903,216.151327 C282.691593,219.406637 286.19469,222.061062 288.080973,223.222566 L288.325664,223.371239 C285.723894,226.437611 284.119469,232.186283 284.119469,232.186283 L291.404425,233.487168 C291.404425,233.487168 296.233186,229.318142 295.616814,225.403097 L295.666372,225.403097 C300.492035,224.436726 301.591593,219.288938 300.838938,216.231858 L300.922566,216.197788 C301.802333,215.838058 302.57311,215.255171 303.15885,214.506637 C304.496903,212.623451 301.681416,210.495575 300.278319,212.353982 Z" id="Path" fill="#000000" fill-rule="nonzero" opacity="0.1"></path>
            <path d="M285.776549,214.447788 L284.924779,216.925664 C284.924779,216.925664 284.450885,216.59115 283.853097,216.064602 C282.660619,215.020796 280.960177,213.218142 281.50531,211.830531 C282.087611,210.340708 284.020354,212.307522 285.073451,213.552655 C285.49469,214.063717 285.776549,214.447788 285.776549,214.447788 Z" id="Path" fill="#009688" fill-rule="nonzero"></path>
            <path d="M287.576106,213.023009 C287.316279,213.363202 287.03922,213.689882 286.746018,214.00177 C286.671493,213.56711 286.620827,213.128696 286.594248,212.688496 C286.523009,211.412389 286.656195,209.718142 287.935398,210.099115 C289.214602,210.480088 288.362832,212.000885 287.576106,213.023009 Z" id="Path" fill="#009688" fill-rule="nonzero"></path>
            <path d="M298.562389,213.416372 C298.534513,214.237168 298.453982,214.893805 298.453982,214.893805 C298.079324,214.600555 297.724423,214.282904 297.391593,213.94292 C296.428319,212.942478 295.362832,211.4 296.855752,210.473894 C298.413717,209.507522 298.605752,211.784071 298.562389,213.416372 Z" id="Path" fill="#009688" fill-rule="nonzero"></path>
            <path d="M303.592478,214.49115 C303.007193,215.238847 302.237648,215.821609 301.359292,216.182301 C301.11485,216.287397 300.864588,216.378402 300.609735,216.454867 L299.606195,215.045575 C299.710635,214.57998 299.848303,214.122466 300.018142,213.676549 C300.19013,213.20177 300.427843,212.753452 300.724336,212.34469 C302.111947,210.495575 304.94292,212.623451 303.592478,214.49115 Z" id="Path" fill="#009688" fill-rule="nonzero"></path>
            <path d="M285.073451,213.568142 C285.49469,214.063717 285.776549,214.447788 285.776549,214.447788 L284.924779,216.925664 C284.924779,216.925664 284.450885,216.59115 283.853097,216.064602 C283.987292,215.266534 284.317185,214.514166 284.813274,213.874779 C284.894878,213.768329 284.981711,213.665991 285.073451,213.568142 Z" id="Path" fill="#000000" fill-rule="nonzero" opacity="0.1"></path>
            <path d="M287.576106,213.023009 C287.316279,213.363202 287.03922,213.689882 286.746018,214.00177 C286.671493,213.56711 286.620827,213.128696 286.594248,212.688496 C286.94817,212.696241 287.291071,212.813065 287.576106,213.023009 Z" id="Path" fill="#000000" fill-rule="nonzero" opacity="0.1"></path>
            <path d="M291.769912,222.922124 L289.651327,223.851327 C289.651327,223.851327 289.186726,223.628319 288.520796,223.213274 C286.296903,221.844248 281.818142,218.396903 284.803982,214.333186 C287.789823,210.269469 290.307965,217.557522 291.308407,221.122566 C291.602655,222.19115 291.769912,222.922124 291.769912,222.922124 Z" id="Path" fill="#009688" fill-rule="nonzero"></path>
            <path d="M297.391593,213.94292 C297.700154,213.624126 298.119145,213.435691 298.562389,213.416372 C298.534513,214.237168 298.453982,214.893805 298.453982,214.893805 C298.079324,214.600555 297.724423,214.282904 297.391593,213.94292 Z" id="Path" fill="#000000" fill-rule="nonzero" opacity="0.1"></path>
            <path d="M301.371681,216.182301 C301.12724,216.287397 300.876977,216.378402 300.622124,216.454867 L299.618584,215.045575 C299.723025,214.57998 299.860693,214.122466 300.030531,213.676549 C300.665487,214.054425 301.142478,214.996018 301.371681,216.182301 Z" id="Path" fill="#000000" fill-rule="nonzero" opacity="0.1"></path>
            <path d="M296.106195,225.387611 C295.988496,225.412389 295.867699,225.434071 295.746903,225.449558 C288.647788,226.530531 293.40531,222.699115 293.40531,222.699115 C293.40531,222.699115 293.715044,222.404867 294.161062,221.921681 C295.015929,220.992478 296.304425,219.323009 296.453097,217.79292 C296.676106,215.491593 296.933186,213.332743 299.649558,213.964602 C302.365929,214.59646 302.821239,224.040265 296.106195,225.387611 Z" id="Path" fill="#009688" fill-rule="nonzero"></path>
            <rect id="Rectangle" fill="#D4DFEC" fill-rule="nonzero" x="282.397345" y="243.070354" width="13.569469" height="3.56814159"></rect>
            <rect id="Rectangle" fill="#D4DFEC" fill-rule="nonzero" x="280.238496" y="231.473894" width="17.7292035" height="12.4513274"></rect>
            <rect id="Rectangle" fill="#000000" fill-rule="nonzero" opacity="0.1" x="282.397345" y="243.070354" width="13.569469" height="3.56814159"></rect>
            <rect id="Rectangle" fill="#000000" fill-rule="nonzero" opacity="0.1" x="280.238496" y="231.473894" width="17.7292035" height="12.4513274"></rect>
            <rect id="Rectangle" fill="#D4DFEC" fill-rule="nonzero" x="283.289381" y="243.070354" width="13.569469" height="3.56814159"></rect>
            <path d="M291.302212,221.125664 C291.611947,222.19115 291.763717,222.922124 291.763717,222.922124 L289.645133,223.851327 C289.645133,223.851327 289.180531,223.628319 288.514602,223.213274 C289.34469,222.163274 290.283186,221.370354 291.302212,221.125664 Z" id="Path" fill="#000000" fill-rule="nonzero" opacity="0.1"></path>
            <path d="M296.106195,225.387611 C295.988496,225.412389 295.867699,225.434071 295.746903,225.449558 C288.647788,226.530531 293.40531,222.699115 293.40531,222.699115 C293.40531,222.699115 293.715044,222.404867 294.161062,221.921681 C295.486726,222.984071 296.028761,224.179646 296.106195,225.387611 Z" id="Path" fill="#000000" fill-rule="nonzero" opacity="0.1"></path>
            <path d="M284.553097,232.176991 C284.553097,232.176991 288.530088,217.929204 294.10531,222.324336 C299.680531,226.719469 291.838053,233.474779 291.838053,233.474779 L284.553097,232.176991 Z" id="Path" fill="#009688" fill-rule="nonzero"></path>
            <circle id="Oval" fill="#000000" fill-rule="nonzero" opacity="0.1" cx="286.560177" cy="216.569469" r="1"></circle>
            <circle id="Oval" fill="#000000" fill-rule="nonzero" opacity="0.1" cx="286.523009" cy="218.650885" r="1"></circle>
            <circle id="Oval" fill="#000000" fill-rule="nonzero" opacity="0.1" cx="299.457522" cy="216.978319" r="1"></circle>
            <circle id="Oval" fill="#000000" fill-rule="nonzero" opacity="0.1" cx="289.050442" cy="227.645575" r="1"></circle>
            <circle id="Oval" fill="#000000" fill-rule="nonzero" opacity="0.1" cx="298.528319" cy="220.434956" r="1"></circle>
            <circle id="Oval" fill="#000000" fill-rule="nonzero" opacity="0.1" cx="293.919469" cy="225.043805" r="1"></circle>
            <circle id="Oval" fill="#000000" fill-rule="nonzero" opacity="0.1" cx="288.084071" cy="217.461504" r="1"></circle>
            <circle id="Oval" fill="#000000" fill-rule="nonzero" opacity="0.1" cx="298.230973" cy="218.316372" r="1"></circle>
            <circle id="Oval" fill="#000000" fill-rule="nonzero" opacity="0.1" cx="296.70708" cy="221.773009" r="1"></circle>
            <circle id="Oval" fill="#000000" fill-rule="nonzero" opacity="0.1" cx="292.023894" cy="227.311062" r="1"></circle>
            <circle id="Oval" fill="#000000" fill-rule="nonzero" opacity="0.1" cx="291.057522" cy="225.118142" r="1"></circle>
            <circle id="Oval" fill="#000000" fill-rule="nonzero" opacity="0.1" cx="288.753097" cy="220.174779" r="1"></circle>
            <rect id="Rectangle" fill="#000000" fill-rule="nonzero" opacity="0.1" x="283.289381" y="243.070354" width="13.569469" height="1.3039823"></rect>
            <rect id="Rectangle" fill="#D4DFEC" fill-rule="nonzero" x="281.133628" y="231.473894" width="17.7292035" height="12.4513274"></rect>
            <circle id="Oval" fill="#000000" fill-rule="nonzero" opacity="0.1" cx="292.618584" cy="229.318142" r="1"></circle>
            <circle id="Oval" fill="#000000" fill-rule="nonzero" opacity="0.1" cx="289.942478" cy="229.875664" r="1"></circle>
            <path d="M259.334513,177.703982 C258.962832,177.437611 258.807965,176.79646 258.752212,176.15531 C258.752212,176.009735 258.730531,175.867257 258.724336,175.730973 C258.891185,175.629215 259.037267,175.496796 259.154867,175.340708 C259.888938,174.3 258.135841,170.524336 258.135841,170.524336 C258.135841,170.524336 258.814159,168.554425 258.135841,166.85708 C257.457522,165.159735 257.147788,164.831416 257.147788,164.831416 C257.147788,164.831416 254.855752,160.123451 255.19646,159.565929 C255.537168,159.008407 254.629646,154.610177 253.957522,153.727434 C253.67648,153.345561 253.374545,152.979516 253.053097,152.630973 C253.053097,152.630973 253.167699,150.716814 252.204425,149.223894 C251.24115,147.730973 250.169469,143.586726 250.169469,143.586726 C250.169469,143.586726 248.983186,139.699558 248.134513,138.321239 C247.788325,137.836659 247.370588,137.407434 246.895575,137.04823 C247.028761,136.428761 247.335398,135.607965 246.455752,130.751327 C246.09646,128.756637 246.65708,127.567257 247.118584,125.594248 C247.580088,123.621239 247.480973,121.338496 246.065487,119.848673 C244.65,118.35885 242.453982,118.080088 240.697788,117.061062 C239.149115,116.165929 237.770796,114.651327 235.961947,114.678824 C234.633186,114.700885 234.636283,114.908407 233.412832,115.40708 C231.297345,116.268142 228.918584,116.007965 226.769027,116.720354 C224.836283,117.361504 222.380088,119.467699 222.965487,121.700885 C223.057789,122.206639 223.307045,122.670472 223.677876,123.026549 C224.096018,123.407522 224.60708,123.410619 225.180088,123.296018 C225.180088,123.333186 225.180088,123.367257 225.158407,123.404425 C225.108393,123.711621 225.083532,124.022387 225.084071,124.333628 C225.084071,127.64469 227.843805,130.333186 231.25708,130.354867 C231.275664,130.426106 231.29115,130.500442 231.309735,130.574779 C231.356195,130.773009 231.399558,130.971239 231.44292,131.175664 C231.281858,131.389381 231.114602,131.603097 230.956637,131.816814 C230.564419,132.316432 230.251051,132.873184 230.027434,133.467699 C228.237168,133.833186 225.235841,134.424779 224.761947,135.199115 C224.142478,136.239823 221.59646,141.393805 221.878319,143.738496 C221.893805,143.868584 221.906195,144.04823 221.918584,144.234071 C221.918584,144.234071 220.351327,147.021681 220.125221,147.89823 C219.899115,148.774779 219.39115,152.057965 218.427876,152.823009 C217.464602,153.588053 215.488496,156.05354 215.770354,156.539823 C216.052212,157.026106 213.112832,157.633186 213.112832,157.633186 C213.112832,157.633186 211.136726,158.39823 211.254425,159.002212 C211.288496,159.184956 211.149115,159.358407 210.94469,159.525664 C208.696018,158.785398 205.830973,158.286726 203.610177,159.414159 C200.512832,160.984513 205.945575,162.065487 209.185398,162.539381 C209.718142,162.619912 210.188938,162.681858 210.554425,162.725221 C210.579204,162.830531 210.681416,162.923451 210.941593,163.013274 C211.146018,163.084513 211.449558,163.196018 211.802655,163.323009 L211.932743,162.920354 C213.007522,163.301327 215.940708,164.487611 215.940708,164.487611 C215.940708,164.487611 218.486726,164.902655 219.220796,163.425221 C219.530531,162.827434 220.376106,161.876549 221.296018,160.947345 L221.193805,161.278761 L219.050442,168.35 C219.050442,168.35 215.65885,173.615487 215.829204,174.752212 C215.999558,175.888938 214.754425,178.80354 214.472566,179.088496 C214.190708,179.373451 211.375221,187.680531 209.891593,188.228761 C208.407965,188.776991 206.44115,190.69115 207.103982,191.295133 C207.766814,191.899115 210.511062,193.865929 211.75,193.209292 C212.988938,192.552655 215.15708,193.757522 215.15708,193.757522 C215.15708,193.757522 217.529646,193.367257 219.462389,194.29646 C219.484071,194.510177 219.50885,194.742478 219.533628,194.987168 C219.734956,196.845575 220.063274,199.413274 220.413274,200.159735 C220.980088,201.364602 221.488053,203.498673 221.032743,204.319469 C220.577434,205.140265 221.429204,220.794248 222.271681,223.476549 C222.934513,225.576549 223.842035,228.955752 223.687168,231.161062 C223.594248,232.502212 223.538496,233.843363 223.529204,235.187611 C223.529204,235.261947 223.529204,235.336283 223.529204,235.410619 C223.529204,235.484956 223.476549,235.528319 223.45177,235.590265 L223.45177,235.711062 C223.255446,236.175312 223.090907,236.65237 222.959292,237.138938 C222.959292,237.138938 221.500442,240.806195 221.99292,241.763274 C222.050675,241.868342 222.12981,241.960138 222.225221,242.032743 C222.928319,242.59646 224.703097,242.717257 225.322566,242.742035 L225.29469,243.671239 L226.127876,243.671239 C226.127876,243.671239 226.149558,242.742035 226.20531,241.583628 C226.448448,240.931897 226.570219,240.24116 226.564602,239.545575 C226.552946,238.331552 226.806648,237.129638 227.307965,236.023894 C227.307965,236.023894 227.326549,235.927876 227.345133,235.773009 L227.345133,235.773009 C227.387598,235.453765 227.405203,235.131705 227.397788,234.809735 C227.431854,234.246345 227.325421,233.683318 227.088053,233.171239 C227.063088,232.836493 227.083929,232.499906 227.15,232.170796 C227.376106,231.35 226.809292,225.604425 226.809292,225.604425 L227.769469,215.039381 C227.769469,215.039381 228.336283,206.884071 228.110177,204.75 C228.050887,204.178626 228.064417,203.602035 228.150442,203.034071 C228.505159,200.714155 228.712066,198.37404 228.769912,196.027876 C228.769912,195.807965 228.769912,195.59115 228.769912,195.371239 C230.826549,196.077434 234.314159,195.49823 234.314159,195.49823 C234.314159,195.49823 235.125664,195.479646 236.20354,195.49823 C236.231416,195.721239 236.262389,195.94115 236.293363,196.154867 C236.457522,197.303982 236.652655,198.323009 236.853982,198.759735 C237.417699,199.964602 237.928761,202.098673 237.473451,202.919469 C237.018142,203.740265 237.866814,219.394248 238.712389,222.076549 C239.378319,224.176549 240.285841,227.552655 240.130973,229.761062 C240.038053,231.099115 239.982301,232.440265 239.973009,233.787611 L239.973009,234.035398 C239.945133,234.094248 239.917257,234.153097 239.892478,234.215044 C239.867699,234.276991 239.892478,234.298673 239.892478,234.335841 C239.704783,234.802903 239.548535,235.281996 239.424779,235.769912 C239.424779,235.769912 237.962832,239.440265 238.458407,240.397345 C238.515413,240.502066 238.594713,240.592997 238.690708,240.663717 C239.393805,241.230531 241.168584,241.34823 241.788053,241.373009 L241.760177,242.302212 L242.593363,242.302212 C242.593363,242.302212 242.615044,241.373009 242.670796,240.214602 C242.913935,239.56287 243.035706,238.872134 243.030088,238.176549 C243.015436,236.963532 243.264862,235.761849 243.761062,234.654867 C243.828965,234.255938 243.85904,233.851487 243.850885,233.446903 C243.882479,232.879051 243.770636,232.312381 243.525664,231.799115 C243.502398,231.465389 243.523227,231.130052 243.587611,230.80177 C243.813717,229.980973 243.25,224.232301 243.25,224.232301 L244.210177,213.670354 C244.210177,213.670354 244.776991,205.515044 244.547788,203.380973 C244.490935,202.809415 244.505502,202.233001 244.59115,201.665044 C244.931883,199.46086 245.138752,197.238056 245.210619,195.00885 C245.210619,194.785841 245.210619,194.565929 245.210619,194.34292 C245.415044,194.092035 245.830088,193.893805 246.976106,193.509735 C248.95531,192.853097 252.913717,189.566814 254.49646,189.35 C256.079204,189.133186 257.491593,188.089381 257.039381,187.268584 C256.587168,186.447788 254.1,185.899558 254.326106,184.642035 C254.552212,183.384513 252.799115,182.616372 252.009292,180.538053 C251.219469,178.459735 247.765929,176.821239 247.710177,175.272566 C247.654425,173.723894 244.45177,168.99115 244.45177,168.99115 C244.45177,168.99115 241.233628,163.638938 240.521239,160.368142 C240.521239,160.293805 240.493363,160.225664 240.480973,160.157522 L240.521239,160.157522 C240.466284,159.912481 240.426972,159.664192 240.40354,159.414159 C240.40354,159.34292 240.419027,159.268584 240.431416,159.20354 L240.388053,159.20354 L240.388053,159.085841 C240.388053,159.085841 240.388053,159.085841 240.388053,159.064159 C240.40958,159.047919 240.432366,159.033419 240.456195,159.020796 L240.642035,158.912389 L240.580088,158.937168 C240.950986,158.696193 241.294726,158.415801 241.60531,158.100885 C242.117479,157.647262 242.520834,157.084047 242.785398,156.453097 C243.03476,155.754064 243.189958,155.024946 243.246903,154.284956 L243.649558,153.665487 C244.039823,155.297788 244.609735,157.639381 244.789381,158.162832 C245.644361,160.373713 246.325775,162.647853 246.827434,164.964602 C247.329655,167.211233 248.164839,169.370185 249.30531,171.369912 C249.30531,171.369912 252.188938,175.145575 254.394248,175.309735 C256.599558,175.473894 255.357522,176.074779 255.695133,176.186283 L255.79115,176.207965 L255.825221,176.650885 L255.921239,177.936283 C255.921239,177.936283 258.182301,187.132301 260.728319,185.819027 C263.274336,184.505752 260.176991,178.304867 259.334513,177.703982 Z" id="Path" fill="url(#linearGradient-1)" fill-rule="nonzero"></path>
            <path d="M259.631858,185.859292 C257.184956,187.166372 255.010619,178.035398 255.010619,178.035398 L254.917699,176.756195 L254.74115,174.337168 L257.730088,174.718142 C257.684962,175.24062 257.684962,175.766017 257.730088,176.288496 C257.782743,176.907965 257.934513,177.55531 258.290708,177.815487 C259.086726,178.416372 262.075664,184.55531 259.631858,185.859292 Z" id="Path" fill="#A1616A" fill-rule="nonzero"></path>
            <path d="M222.764159,239.176991 L222.971681,239.019027 C222.908925,239.079618 222.839274,239.132635 222.764159,239.176991 L222.764159,239.176991 Z" id="Path" fill="#A1616A" fill-rule="nonzero"></path>
            <path d="M228.924779,189.012389 L228.924779,195.250442 C228.924779,195.520944 228.924779,195.790413 228.924779,196.05885 C228.860831,198.389247 228.653952,200.713526 228.30531,203.018584 C228.222353,203.581615 228.20883,204.1527 228.265044,204.719027 C228.481858,206.840708 227.95531,214.940265 227.95531,214.940265 L227.026106,225.430973 C227.026106,225.430973 227.568142,231.136283 227.335841,231.935398 C227.27431,232.262998 227.254536,232.597075 227.276991,232.929646 C227.307965,233.85885 227.469027,235.051327 227.521681,235.407522 L227.521681,235.515929 L227.487611,235.540708 L222.943805,239.006637 C223.668584,238.346903 223.854425,236.810619 223.851327,235.385841 C223.851327,235.230973 223.851327,235.076106 223.851327,234.921239 C223.851327,233.589381 223.90295,232.257522 224.006195,230.925664 C224.154867,228.735841 223.281416,225.381416 222.643363,223.293805 C221.828761,220.633186 221.011062,205.087611 221.447788,204.273009 C221.884513,203.458407 221.392035,201.336726 220.85,200.14115 C220.530973,199.413274 220.221239,196.867257 220.035398,195.00885 C219.917699,193.881416 219.84646,193.026549 219.84646,193.026549 L228.924779,189.012389 Z" id="Path" fill="#A1616A" fill-rule="nonzero"></path>
            <path d="M238.576106,237.783186 L238.799115,237.615929 C238.730938,237.679453 238.656179,237.735523 238.576106,237.783186 L238.576106,237.783186 Z" id="Path" fill="#A1616A" fill-rule="nonzero"></path>
            <path d="M244.736726,187.618584 L244.736726,193.856637 C244.736726,194.240708 244.736726,194.627876 244.736726,195.011947 C244.666105,197.225966 244.466504,199.433987 244.138938,201.624779 C244.05595,202.187807 244.042427,202.758896 244.098673,203.325221 C244.315487,205.446903 243.788938,213.54646 243.788938,213.54646 L242.859735,224.037168 C242.859735,224.037168 243.404867,229.742478 243.188053,230.541593 C243.125071,230.867968 243.105285,231.201209 243.129204,231.532743 C243.160177,232.461947 243.324336,233.673009 243.373894,234.010619 C243.373894,234.078761 243.389381,234.112832 243.389381,234.112832 L243.35531,234.137611 L243.35531,234.137611 L238.80531,237.60354 C239.508407,236.928319 239.69115,235.410619 239.688053,234.004425 C239.688053,233.849558 239.688053,233.69469 239.688053,233.536726 C239.688053,232.204867 239.75,230.873009 239.839823,229.54115 C239.985398,227.351327 239.115044,224 238.476991,221.912389 C237.659292,219.25177 236.84469,203.706195 237.281416,202.891593 C237.718142,202.076991 237.225664,199.95531 236.683628,198.759735 C236.488496,198.338496 236.302655,197.313274 236.141593,196.173451 C235.85354,194.104425 235.649115,191.642035 235.649115,191.642035 L244.736726,187.618584 Z" id="Path" fill="#A1616A" fill-rule="nonzero"></path>
            <path d="M236.25,128.468584 L236.20354,128.539823 C235.23517,129.910693 233.734108,130.810206 232.068584,131.017699 C231.827443,131.051474 231.584202,131.068035 231.340708,131.067283 C231.322124,130.99292 231.306637,130.918584 231.288053,130.847345 C230.931858,129.298673 230.553982,128.059735 230.553982,128.059735 C230.553982,128.059735 230.959735,127.474336 231.551327,126.727876 C233.15885,124.696018 236.119912,121.484071 235.887611,125.776991 C235.837799,126.646522 235.94267,127.517995 236.197345,128.350885 C236.219027,128.372566 236.231416,128.415929 236.25,128.468584 Z" id="Path" fill="#000000" fill-rule="nonzero" opacity="0.1"></path>
            <path d="M237.31239,124.853982 C237.313157,127.871663 235.063595,130.416206 232.068584,130.785398 C231.824103,130.816587 231.577878,130.832105 231.331416,130.831861 L231.288053,130.831861 C227.992733,130.806246 225.339675,128.118625 225.356635,124.823249 C225.373759,121.527874 228.054471,118.867835 231.34988,118.876286 C234.645289,118.884778 237.31239,121.558562 237.31239,124.853982 L237.31239,124.853982 Z" id="Path" fill="#A1616A" fill-rule="nonzero"></path>
            <path d="M243.110619,142.273451 L237.312389,147.229204 C237.312389,147.229204 230.990708,138.209735 231.737168,136.360619 C231.975664,135.781416 231.947788,134.753097 231.796018,133.60708 C231.712389,132.987611 231.591593,132.303097 231.45531,131.65885 C231.415044,131.457522 231.371681,131.259292 231.328319,131.064159 C231.309735,130.989823 231.294248,130.915487 231.275664,130.844248 C230.919469,129.295575 230.541593,128.056637 230.541593,128.056637 C230.541593,128.056637 230.947345,127.471239 231.538938,126.724779 C233.14646,124.69292 236.107522,121.480973 235.875221,125.773894 C235.82541,126.643425 235.93028,127.514897 236.184956,128.347788 C236.184956,128.397345 236.212832,128.446903 236.231416,128.493363 C237.05531,131.026991 239.062389,133.049558 240.604867,134.303982 C241.236423,134.823478 241.904027,135.297529 242.602655,135.722566 L243.110619,142.273451 Z" id="Path" fill="#A1616A" fill-rule="nonzero"></path>
            <path d="M219.84646,193.035841 L228.924779,189.009292 L228.924779,195.247345 C228.924779,195.517847 228.924779,195.787316 228.924779,196.055752 C228.719567,195.984565 228.522336,195.892177 228.336283,195.780088 C226.54292,194.671239 224.309735,195.532301 224.15177,195.532301 C223.993805,195.532301 222.194248,196.294248 220.292478,195.151327 C220.20885,195.10177 220.125221,195.05531 220.04469,195.015044 C219.911504,193.890708 219.84646,193.035841 219.84646,193.035841 Z" id="Path" fill="#000000" fill-rule="nonzero" opacity="0.1"></path>
            <path d="M244.736726,187.618584 L244.736726,193.856637 C244.736726,194.240708 244.736726,194.627876 244.736726,195.011947 C244.607868,195.22764 244.503955,195.457286 244.426991,195.69646 C244.098673,196.458407 241.871681,196.730973 239.914159,196.40885 C238.670564,196.246291 237.417435,196.167647 236.163274,196.173451 C235.875221,194.104425 235.670796,191.642035 235.670796,191.642035 L244.736726,187.618584 Z" id="Path" fill="#000000" fill-rule="nonzero" opacity="0.1"></path>
            <path d="M253.653982,189.393363 C252.130088,189.610177 248.326549,192.871681 246.424779,193.525221 C244.523009,194.178761 244.739823,194.284071 244.414602,195.046018 C244.089381,195.807965 241.859292,196.077434 239.90177,195.75531 C237.944248,195.433186 234.249115,195.535398 234.249115,195.535398 C234.249115,195.535398 230.132743,196.247788 228.326991,195.129646 C226.521239,194.011504 224.300442,194.881858 224.142478,194.881858 C223.984513,194.881858 222.184956,195.643805 220.283186,194.500885 C218.381416,193.357965 215.826106,193.79469 215.826106,193.79469 C215.826106,193.79469 213.760177,192.599115 212.564602,193.252655 C211.369027,193.906195 208.761062,191.948673 208.107522,191.350885 C207.453982,190.753097 209.34646,188.851327 210.771239,188.306195 C212.196018,187.761062 214.903097,179.500442 215.172566,179.230973 C215.442035,178.961504 216.640708,176.077876 216.476549,174.938053 C216.312389,173.79823 219.573894,168.576106 219.573894,168.576106 L221.636726,161.557522 L222.256195,159.389381 L222.280973,158.097788 C222.280973,157.515487 222.30885,156.769027 222.324336,155.929646 C222.380088,152.460619 222.438938,147.315929 222.324336,144.989823 C222.305752,144.630531 222.287168,144.339381 222.262389,144.128761 C221.989823,141.793363 224.430531,136.695133 225.034513,135.651327 C225.480531,134.880088 228.367257,134.29469 230.086283,133.932301 C230.496165,133.858203 230.901531,133.760998 231.300442,133.64115 C231.456189,133.601845 231.617479,133.589277 231.777434,133.603982 C233.400442,133.669027 238.185841,134.672566 238.185841,134.672566 C237.752212,147.771239 238.622566,145.488496 238.622566,145.488496 C240.034956,144.401327 239.164602,134.780973 239.164602,134.780973 C239.870796,135.106195 240.592478,134.288496 240.592478,134.288496 L243.349115,135.431416 C244.188522,135.935604 245.000169,136.484629 245.780531,137.076106 C246.434879,137.537028 247.0093,138.102031 247.480973,138.748673 C248.295575,140.108407 249.438496,143.967699 249.438496,143.967699 L248.459735,145.516372 C247.604867,146.888496 246.291593,148.997788 244.944248,151.134956 L242.553097,154.941593 C241.484513,156.638938 240.614159,158.017257 240.25177,158.577876 C240.170017,158.712435 240.112368,158.860227 240.081416,159.014602 C240.060919,159.116803 240.047466,159.220291 240.04115,159.324336 C240.02597,159.757572 240.068677,160.190896 240.168142,160.612832 C240.852655,163.85885 243.946903,169.176991 243.946903,169.176991 C243.946903,169.176991 247.044248,173.90354 247.1,175.424336 C247.155752,176.945133 250.469912,178.577434 251.231858,180.643363 C251.993805,182.709292 253.675664,183.468142 253.45885,184.719469 C253.242035,185.970796 255.626991,186.512832 256.066814,187.327434 C256.506637,188.142035 255.174779,189.176549 253.653982,189.393363 Z" id="Path" fill="#FA595F" fill-rule="nonzero"></path>
            <path d="M257.723894,176.288496 C256.884513,176.85531 255.40708,176.833628 254.917699,176.756195 L254.74115,174.337168 L257.730088,174.718142 C257.682901,175.240442 257.680828,175.765839 257.723894,176.288496 L257.723894,176.288496 Z" id="Path" fill="#000000" fill-rule="nonzero" opacity="0.1"></path>
            <path d="M247.239381,142.381858 L249.469469,143.958407 C249.469469,143.958407 250.500885,148.087168 251.423894,149.55531 C252.346903,151.023451 252.238496,152.925221 252.238496,152.925221 C252.549817,153.270114 252.840444,153.633139 253.10885,154.012389 C253.762389,154.882743 254.629646,159.246903 254.304425,159.810619 C253.979204,160.374336 256.181416,165.045133 256.181416,165.045133 C256.181416,165.045133 256.49115,165.354867 257.132301,167.05531 C257.773451,168.755752 257.132301,170.697788 257.132301,170.697788 C257.132301,170.697788 258.817257,174.448673 258.111062,175.480088 C257.404867,176.511504 255.119027,176.409292 254.793805,176.29469 C254.468584,176.180088 255.664159,175.588496 253.554867,175.424336 C251.445575,175.260177 248.661062,171.512389 248.661062,171.512389 C247.558493,169.520577 246.75293,167.378325 246.269912,165.15354 C245.788001,162.861193 245.134691,160.608255 244.315487,158.413717 C244.04292,157.599115 242.847345,152.327434 242.847345,152.327434 L247.239381,142.381858 Z" id="Path" fill="#FA595F" fill-rule="nonzero"></path>
            <path d="M230.553982,142.381858 C230.553982,142.381858 230.389823,154.99115 228.869027,157.490708 L230.553982,142.381858 Z" id="Path" fill="#000000" fill-rule="nonzero" opacity="0.1"></path>
            <path d="M239.359735,146.838938 C239.359735,146.838938 237.947345,159.44823 236.832301,160.098673 C235.717257,160.749115 239.359735,146.838938 239.359735,146.838938 Z" id="Path" fill="#000000" fill-rule="nonzero" opacity="0.1"></path>
            <path d="M237.312389,145.045575 C237.312389,145.045575 236.968584,156.936283 235.175221,158.110177 C233.381858,159.284071 237.312389,145.045575 237.312389,145.045575 Z" id="Path" fill="#000000" fill-rule="nonzero" opacity="0.1"></path>
            <path d="M221.695575,167.54469 C221.695575,167.54469 219.446903,174.120354 219.700885,176.836726 C219.954867,179.553097 221.695575,167.54469 221.695575,167.54469 Z" id="Path" fill="#000000" fill-rule="nonzero" opacity="0.1"></path>
            <path d="M240.199115,161.04646 C237.256637,161.706195 229.29646,162.889381 222.29646,158.534513 C222.29646,157.952212 222.324336,157.205752 222.339823,156.366372 C224.997345,157.828319 232.461947,161.631858 236.262389,160.566372 C238.157965,160.024336 239.359735,159.680531 240.112389,159.457522 C240.037112,159.987743 240.066577,160.527582 240.199115,161.04646 L240.199115,161.04646 Z" id="Path" fill="#000000" fill-rule="nonzero" opacity="0.1"></path>
            <path d="M240.199115,160.396018 C237.256637,161.052655 229.29646,162.235841 222.29646,157.884071 C222.29646,157.30177 222.324336,156.552212 222.339823,155.715929 C224.997345,157.177876 232.461947,160.981416 236.262389,159.915929 C238.157965,159.376991 239.359735,159.030088 240.112389,158.810177 C240.037602,159.339388 240.067064,159.878118 240.199115,160.396018 Z" id="Path" fill="#000000" fill-rule="nonzero" opacity="0.1"></path>
            <path d="M240.199115,160.628319 C237.256637,161.284956 229.29646,162.468142 222.29646,158.116372 C222.29646,157.534071 222.324336,156.787611 222.339823,155.94823 C224.997345,157.410177 232.461947,161.213717 236.262389,160.14823 C238.157965,159.609292 239.359735,159.262389 240.112389,159.042478 C240.037602,159.571689 240.067064,160.110419 240.199115,160.628319 Z" id="Path" fill="#605D82" fill-rule="nonzero"></path>
            <path d="M240.199115,160.628319 C237.256637,161.284956 229.29646,162.468142 222.29646,158.116372 C222.29646,157.534071 222.324336,156.787611 222.339823,155.94823 C224.997345,157.410177 232.461947,161.213717 236.262389,160.14823 C238.157965,159.609292 239.359735,159.262389 240.112389,159.042478 C240.037602,159.571689 240.067064,160.110419 240.199115,160.628319 Z" id="Path" fill="#000000" fill-rule="nonzero" opacity="0.1"></path>
            <path d="M227.534071,235.419912 C227.534071,235.49115 227.518584,235.537611 227.515487,235.553097 L222.971681,239.019027 C223.69646,238.359292 223.882301,236.823009 223.879204,235.39823 C223.879204,235.243363 223.879204,235.088496 223.879204,234.933628 C224.279154,233.949016 224.847195,233.041409 225.557965,232.251327 C226.332301,232.05 226.818584,232.251327 227.106637,232.601327 C227.106637,232.635398 227.106637,232.669469 227.106637,232.700442 C227.168412,232.775279 227.222379,232.85623 227.267699,232.942035 C227.723009,233.725664 227.59292,235.004867 227.534071,235.419912 Z" id="Path" fill="#000000" fill-rule="nonzero" opacity="0.1"></path>
            <path d="M227.180973,233.660619 L223.752212,236.014602 C223.752212,236.014602 223.773894,235.738938 223.804867,235.333186 C224.213125,234.280289 224.808058,233.309718 225.561062,232.468142 C226.335398,232.269912 226.821681,232.468142 227.109735,232.818142 C227.137611,233.326106 227.180973,233.660619 227.180973,233.660619 Z" id="Path" fill="#000000" fill-rule="nonzero" opacity="0.1"></path>
            <path d="M227.512389,235.776106 C227.031131,236.879597 226.78837,238.072293 226.8,239.276106 C226.820445,240.265586 226.568657,241.241666 226.072124,242.097788 C226.002692,242.219054 225.922895,242.334085 225.833628,242.441593 C225.833628,242.441593 223.45177,242.423009 222.618584,241.732301 C222.524057,241.662135 222.445861,241.572315 222.389381,241.469027 C221.912389,240.518142 223.318584,236.875664 223.318584,236.875664 C224.055752,234.066372 225.554867,232.567257 225.554867,232.567257 C228.227876,231.867257 227.512389,235.776106 227.512389,235.776106 Z" id="Path" fill="#5A5773" fill-rule="nonzero"></path>
            <path d="M226.072124,242.088496 C226.002692,242.209762 225.922895,242.324793 225.833628,242.432301 C225.833628,242.432301 223.45177,242.413717 222.618584,241.723009 C223.027434,240.366372 224.337611,236.262389 224.947788,236.959292 C225.557965,237.656195 225.926549,240.778319 226.072124,242.088496 Z" id="Path" fill="#000000" fill-rule="nonzero" opacity="0.1"></path>
            <path d="M225.743805,237.222566 L225.579646,243.373894 L226.378761,243.373894 C226.378761,243.373894 226.505752,237.978319 226.865044,237.222566 C227.224336,236.466814 225.743805,237.222566 225.743805,237.222566 Z" id="Path" fill="#5A5773" fill-rule="nonzero"></path>
            <path d="M243.346018,234.035398 L243.327434,234.162389 L243.327434,234.162389 L238.80531,237.60354 C239.508407,236.928319 239.69115,235.410619 239.688053,234.004425 C239.688053,233.849558 239.688053,233.69469 239.688053,233.536726 C240.087158,232.553317 240.654151,231.646758 241.363717,230.857522 C242.138053,230.656195 242.627434,230.857522 242.927876,231.204425 C242.927876,231.241593 242.927876,231.272566 242.927876,231.306637 C242.990301,231.379872 243.044325,231.459869 243.088938,231.545133 C243.538053,232.34115 243.404867,233.623451 243.346018,234.035398 Z" id="Path" fill="#000000" fill-rule="nonzero" opacity="0.1"></path>
            <path d="M242.99292,232.263717 L239.564159,234.620796 C239.564159,234.620796 239.585841,234.345133 239.619912,233.939381 C240.025385,232.885801 240.619455,231.914928 241.373009,231.074336 C242.147345,230.876106 242.633628,231.05885 242.937168,231.424336 C242.949558,231.932301 242.99292,232.263717 242.99292,232.263717 Z" id="Path" fill="#000000" fill-rule="nonzero" opacity="0.1"></path>
            <path d="M243.327434,234.382301 C242.843673,235.485104 242.599791,236.67812 242.611947,237.882301 C242.632392,238.871781 242.380604,239.847861 241.884071,240.703982 C241.813625,240.824606 241.733885,240.939556 241.645575,241.047788 C241.645575,241.047788 239.263717,241.029204 238.430531,240.338496 C238.338747,240.265904 238.262843,240.175242 238.207522,240.072124 C237.733628,239.121239 239.136726,235.478761 239.136726,235.478761 C239.873894,232.669469 241.373009,231.170354 241.373009,231.170354 C244.039823,230.479646 243.327434,234.382301 243.327434,234.382301 Z" id="Path" fill="#5A5773" fill-rule="nonzero"></path>
            <path d="M241.884071,240.703982 C241.813625,240.824606 241.733885,240.939556 241.645575,241.047788 C241.645575,241.047788 239.263717,241.029204 238.430531,240.338496 C238.839381,238.981858 240.149558,234.874779 240.759735,235.571681 C241.369912,236.268584 241.738496,239.384513 241.884071,240.703982 Z" id="Path" fill="#000000" fill-rule="nonzero" opacity="0.1"></path>
            <path d="M241.55885,235.828761 L241.391593,241.976991 L242.190708,241.976991 C242.190708,241.976991 242.317699,236.584513 242.676991,235.828761 C243.036283,235.073009 241.55885,235.828761 241.55885,235.828761 Z" id="Path" fill="#5A5773" fill-rule="nonzero"></path>
            <path d="M248.679646,147.219912 C248.642478,148.768584 247.796903,150.419469 246.313274,150.880973 C245.879646,151.014159 245.418142,151.045133 244.975221,151.134956 C244.762254,151.174319 244.554437,151.237703 244.355752,151.323894 C243.404867,151.760619 242.930973,152.84469 242.738938,153.873009 C242.670796,154.226106 242.627434,154.582301 242.584071,154.941593 C242.532764,155.625541 242.390048,156.299531 242.159735,156.945575 C241.735312,157.940811 241.003838,158.774301 240.072124,159.324336 C238.990362,159.967376 237.823661,160.455326 236.606195,160.773894 C237.850567,158.856869 238.190296,156.490089 237.535398,154.300442 C237.337168,153.665487 236.915929,152.956195 236.243805,152.974779 C235.720354,152.990265 235.345575,153.454867 234.95531,153.807965 C233.034956,155.536283 230.030531,154.765044 227.599115,153.89469 C231.935398,149.487168 233.140265,142.329204 230.526106,136.738496 C230.288573,136.302353 230.109455,135.836854 229.993363,135.353982 C229.916414,134.873391 229.96223,134.381145 230.126549,133.923009 C230.337677,133.336595 230.634077,132.784498 231.006195,132.284513 C231.157965,132.070796 231.315929,131.860177 231.476991,131.64646 C231.684513,131.364602 231.892035,131.079646 232.077876,130.785398 C232.35325,130.373505 232.562283,129.92095 232.697345,129.444248 C232.973009,128.39115 232.585841,127.059292 231.566814,126.7 L231.511062,126.678319 C230.383628,126.325221 230.033628,126.219912 229.265487,125.315487 C228.751327,124.714602 228.460177,123.766814 227.580531,123.590265 C226.90531,123.450885 226.149558,123.751327 225.440265,123.934071 C225.818212,121.49041 227.66096,119.531267 230.076924,119.004541 C232.492887,118.477815 234.983902,119.492116 236.34473,121.556691 C237.705558,123.621265 237.655599,126.310404 236.219027,128.323009 C237.011947,130.924779 239.065487,133 240.638938,134.279204 L243.395575,135.422124 C244.234982,135.926312 245.046629,136.475337 245.826991,137.066814 C246.252626,139.000675 246.83903,140.895608 247.580088,142.731858 C247.957883,143.636973 248.268459,144.5687 248.509292,145.519469 C248.636726,146.076968 248.693955,146.648213 248.679646,147.219912 L248.679646,147.219912 Z" id="Path" fill="#000000" fill-rule="nonzero" opacity="0.1"></path>
            <path d="M231.712389,126.461504 C232.771681,126.79292 233.180531,128.155752 232.898673,129.227434 C232.616814,130.299115 231.857965,131.166372 231.216814,132.067699 C230.575664,132.969027 230.005752,134.046903 230.200885,135.137168 C230.316977,135.62004 230.496095,136.085539 230.733628,136.521681 C233.347788,142.112389 232.127434,149.267257 227.806637,153.677876 C230.238053,154.54823 233.245575,155.319469 235.162832,153.59115 C235.553097,153.238053 235.927876,152.773451 236.451327,152.757965 C237.117257,152.736283 237.547788,153.448673 237.74292,154.083628 C238.397717,156.272267 238.057966,158.638065 236.813717,160.553982 C239.053097,159.90354 241.512389,158.896903 242.370354,156.728761 C242.754425,155.759292 242.754425,154.681416 242.94646,153.653097 C243.138496,152.624779 243.612389,151.543805 244.563274,151.10708 C245.182743,150.828319 245.879646,150.862389 246.520796,150.664159 C248.004425,150.202655 248.85,148.554867 248.887168,147.003097 C248.924336,145.451327 248.329646,143.961504 247.772124,142.515044 C244.674779,134.461947 247.586283,140.913717 245.888938,131.222124 C245.542035,129.24292 246.084071,128.059735 246.526991,126.102212 C246.969912,124.14469 246.873894,121.877434 245.514159,120.396903 C244.154425,118.916372 242.042035,118.640708 240.353982,117.637168 C238.857965,116.745133 237.541593,115.24292 235.800885,115.270414 C234.524779,115.289381 234.527876,115.496903 233.350885,115.992478 C231.315929,116.847345 229.033186,116.590265 226.964159,117.29646 C225.105752,117.934513 222.745575,120.022124 223.309292,122.252212 C224.068142,125.25354 226.149558,123.045133 227.772566,123.382743 C228.652212,123.568584 228.943363,124.503982 229.457522,125.107965 C230.238053,126 230.584956,126.108407 231.712389,126.461504 Z" id="Path" fill="#4A4347" fill-rule="nonzero"></path>
            <path d="M212.168142,163.072124 C212.168142,163.072124 211.288496,162.979204 210.10531,162.79646 C207.007965,162.325664 201.770354,161.247788 204.75,159.699115 C207.484956,158.268142 211.254425,159.482301 213.459735,160.454867 C214.087024,160.731792 214.699103,161.041967 215.293363,161.384071 L212.168142,163.072124 Z" id="Path" fill="#A1616A" fill-rule="nonzero"></path>
            <path d="M228.652212,144.175221 C228.652212,144.175221 227.239823,151.299115 226.533628,152.869469 C225.827434,154.439823 224.675221,158.577876 224.675221,158.577876 C224.675221,158.577876 223.005752,160.089381 221.627434,161.557522 L222.246903,159.389381 L222.271681,158.097788 C222.271681,157.515487 222.299558,156.769027 222.315044,155.929646 C222.370796,152.460619 222.429646,147.315929 222.315044,144.989823 C222.435841,144.763717 222.513274,144.624336 222.513274,144.624336 L223.612832,142.880531 C223.612832,142.880531 225.406195,138.09823 226.437611,136.738496 C227.469027,135.378761 228.652212,144.175221 228.652212,144.175221 Z" id="Path" fill="#000000" fill-rule="nonzero" opacity="0.1"></path>
            <path d="M213.032301,162.127434 C213.032301,162.127434 212.874336,162.746903 212.607965,163.583186 C212.270354,163.446903 211.988496,163.338496 211.780973,163.273451 C210.85177,162.963717 211.945133,162.567257 211.672566,161.752655 C211.440265,161.052655 211.009735,161.272566 210.514159,161.077434 C210.838353,160.636387 211.188997,160.215408 211.564159,159.816814 L213.032301,162.127434 Z" id="Path" fill="#000000" fill-rule="nonzero" opacity="0.1"></path>
            <path d="M223.433186,142.871239 L222.333628,144.615044 C222.333628,144.615044 220.840708,147.380973 220.608407,148.238938 C220.376106,149.096903 219.911504,152.380088 218.982301,153.142035 C218.053097,153.903982 216.154425,156.347788 216.426991,156.837168 C216.699558,157.326549 213.871681,157.924336 213.871681,157.924336 C213.871681,157.924336 211.969912,158.686283 212.078319,159.284071 C212.186726,159.881858 210.50177,160.371239 211.099558,160.804867 C211.697345,161.238496 212.242478,160.804867 212.515044,161.619469 C212.787611,162.434071 211.697345,162.818142 212.623451,163.143363 C213.549558,163.468584 216.59115,164.741593 216.59115,164.741593 C216.59115,164.741593 219.034956,165.15354 219.74115,163.685398 C220.447345,162.217257 224.470796,158.577876 224.470796,158.577876 C224.470796,158.577876 225.610619,154.446018 226.329204,152.869469 C227.047788,151.29292 228.450885,144.175221 228.450885,144.175221 C228.450885,144.175221 227.307965,135.369469 226.282743,136.741593 C225.257522,138.113717 223.433186,142.871239 223.433186,142.871239 Z" id="Path" fill="#FA595F" fill-rule="nonzero"></path>
            <path d="M220.335841,156.89292 C220.335841,156.89292 214.955752,157.599115 217.836283,158.79469 C220.716814,159.990265 221.695575,158.79469 221.695575,158.79469 L220.335841,156.89292 Z" id="Path" fill="#000000" fill-rule="nonzero" opacity="0.1"></path>
            <path d="M213.65177,160.098673 C213.65177,160.098673 216.804867,159.44823 217.619469,160.098673 C218.434071,160.749115 213.65177,160.098673 213.65177,160.098673 Z" id="Path" fill="#000000" fill-rule="nonzero" opacity="0.1"></path>
            <path d="M213.326549,161.730973 C213.326549,161.730973 213.543363,161.185841 214.630531,161.730973 C215.717699,162.276106 213.326549,161.730973 213.326549,161.730973 Z" id="Path" fill="#000000" fill-rule="nonzero" opacity="0.1"></path>
            <path d="M248.89646,166.922124 C248.89646,166.922124 249.224779,171.877876 250.559735,172.038938 C251.89469,172.2 248.89646,166.922124 248.89646,166.922124 Z" id="Path" fill="#000000" fill-rule="nonzero" opacity="0.1"></path>
            <path d="M251.752212,155.70354 C251.752212,155.70354 251.978319,157.218142 250.559735,157.490708 C249.14115,157.763274 251.752212,155.70354 251.752212,155.70354 Z" id="Path" fill="#000000" fill-rule="nonzero" opacity="0.1"></path>
            <path d="M235.661504,170.443805 C235.661504,170.443805 235.590265,185.735398 238.706195,187.618584 L235.661504,170.443805 Z" id="Path" fill="#000000" fill-rule="nonzero" opacity="0.1"></path>
            <path d="M239.790265,171.097345 C239.790265,171.097345 239.734513,186.385841 242.831858,188.272124 L239.790265,171.097345 Z" id="Path" fill="#000000" fill-rule="nonzero" opacity="0.1"></path>
            <path d="M223.231858,204.204867 C223.937564,204.13926 224.647834,204.13926 225.35354,204.204867 C226.533628,204.300885 223.231858,204.204867 223.231858,204.204867 Z" id="Path" fill="#000000" fill-rule="nonzero" opacity="0.1"></path>
            <path d="M223.231858,205.273451 C223.937564,205.207844 224.647834,205.207844 225.35354,205.273451 C226.533628,205.381858 223.231858,205.273451 223.231858,205.273451 Z" id="Path" fill="#000000" fill-rule="nonzero" opacity="0.1"></path>
            <path d="M239.35354,202.950442 C240.059245,202.884835 240.769516,202.884835 241.475221,202.950442 C242.65531,203.061947 239.35354,202.950442 239.35354,202.950442 Z" id="Path" fill="#000000" fill-rule="nonzero" opacity="0.1"></path>
            <path d="M239.715929,203.80531 C240.421635,203.739703 241.131905,203.739703 241.837611,203.80531 C243.014602,203.913717 239.715929,203.80531 239.715929,203.80531 Z" id="Path" fill="#000000" fill-rule="nonzero" opacity="0.1"></path>
            <g id="Group" opacity="0.1" transform="translate(223.008850, 117.389381)" fill="#000000" fill-rule="nonzero">
                <path d="M5.94070796,35.7526549 C10.2769912,31.3451327 11.4818584,24.1902655 8.86769912,18.5964602 C8.63016603,18.1603175 8.45104787,17.6948185 8.33495575,17.2119469 C8.13982301,16.1216814 8.70663717,15.0438053 9.35088496,14.1424779 C9.99513274,13.2411504 10.7539823,12.3738938 11.0327434,11.3022124 C11.3115044,10.230531 10.9057522,8.86769912 9.84646018,8.53938053 C8.71902655,8.18628319 8.36902655,8.07787611 7.60088496,7.17345133 C7.08672566,6.57256637 6.79557522,5.62477876 5.9159292,5.45132743 C4.29292035,5.11371681 2.19911504,7.30973451 1.45265487,4.31769912 C1.02522124,2.63893805 2.27345133,1.03451327 3.71371681,0.0774336283 C1.91415929,0.823893805 -0.167256637,2.80619469 0.365486726,4.90309735 C1.12433628,7.90442478 3.20575221,5.69911504 4.82876106,6.03672566 C5.70840708,6.21946903 5.99955752,7.1579646 6.51371681,7.75884956 C7.28495575,8.66327434 7.63185841,8.77168142 8.75929204,9.12477876 C9.81858407,9.45309735 10.2274336,10.8159292 9.94557522,11.8876106 C9.66371681,12.959292 8.90486726,13.8265487 8.26371681,14.7278761 C7.62256637,15.6292035 7.05265487,16.7070796 7.24778761,17.8004425 C7.36444398,18.2821524 7.54354101,18.7465552 7.78053097,19.1818584 C10.3946903,24.7756637 9.17433628,31.930531 4.85353982,36.3380531 C7.19513274,37.1774336 10.0663717,37.9207965 11.9774336,36.4340708 C10.1654867,37.0721239 7.87345133,36.4433628 5.94070796,35.7526549 Z" id="Path"></path>
                <path d="M22.7066372,33.1849558 C22.4764559,33.2896096 22.266705,33.4343377 22.0871681,33.6123894 C22.5765487,33.4915929 23.0938053,33.4761062 23.5738938,33.3243363 C23.9461763,33.2090784 24.2901551,33.0170412 24.5836283,32.7606195 C23.9672566,32.9340708 23.2920354,32.9154867 22.7066372,33.1849558 Z" id="Path"></path>
                <path d="M17.3110619,41.7800885 C16.5482108,42.1210075 15.7614523,42.4056898 14.9570796,42.6318584 C16.2013286,40.7159407 16.5410793,38.3501428 15.8862832,36.1615044 C15.6911504,35.5420354 15.2668142,34.8141593 14.5946903,34.8327434 C14.1909084,34.8949135 13.8245202,35.1045936 13.5663717,35.4212389 C14.1858407,35.4429204 14.610177,36.130531 14.8053097,36.7469027 C15.4601059,38.935541 15.1203551,41.3013389 13.8761062,43.2172566 C15.0815515,42.8979054 16.2373611,42.4143205 17.3110619,41.7800885 L17.3110619,41.7800885 Z" id="Path"></path>
            </g>
        </g>
    </g>
</svg>